<?xml version="1.0" standalone="no"?>
<!DOCTYPE svg PUBLIC "-//W3C//DTD SVG 20010904//EN"
 "http://www.w3.org/TR/2001/REC-SVG-20010904/DTD/svg10.dtd">
<svg version="1.0" xmlns="http://www.w3.org/2000/svg"
 width="120.000000pt" height="47.000000pt" viewBox="0 0 120.000000 47.000000"
 preserveAspectRatio="xMidYMid meet">

<g transform="translate(0.000000,47.000000) scale(0.100000,-0.100000)"
fill="#000000" stroke="none">
<path d="M603 463 c15 -2 37 -2 50 0 12 2 0 4 -28 4 -27 0 -38 -2 -22 -4z"/>
<path d="M508 453 c12 -2 30 -2 40 0 9 3 -1 5 -23 4 -22 0 -30 -2 -17 -4z"/>
<path d="M385 425 c-162 -66 -152 -190 20 -245 88 -28 260 -38 364 -20 40 7
71 14 69 16 -2 2 -46 -1 -97 -6 -170 -18 -342 16 -417 82 -38 33 -42 54 -19
98 16 32 49 52 129 81 28 9 42 18 31 18 -11 0 -47 -10 -80 -24z"/>
<path d="M492 386 c-13 -30 -7 -37 29 -29 55 11 60 2 38 -74 -10 -37 -19 -69
-19 -70 0 -2 13 -3 30 -3 26 0 30 4 40 43 6 23 14 55 18 72 5 19 16 32 32 36
24 7 24 7 3 8 -13 1 -23 6 -23 11 0 6 10 15 23 20 15 6 -4 9 -69 9 -86 1 -91
0 -102 -23z"/>
<path d="M651 293 c-7 -27 -14 -56 -17 -65 -4 -14 1 -18 24 -18 28 0 30 3 41
57 15 74 15 73 -13 73 -20 0 -25 -7 -35 -47z"/>
<path d="M865 190 c-16 -7 -17 -9 -3 -9 9 -1 20 4 23 9 7 11 7 11 -20 0z"/>
<path d="M54 108 c-2 -3 1 -8 7 -10 7 -2 7 -12 -1 -32 -16 -42 -4 -44 14 -2 8
20 22 36 30 36 9 0 16 4 16 8 0 9 -60 10 -66 0z"/>
<path d="M396 86 c-9 -22 -15 -44 -13 -50 2 -6 12 7 21 28 9 22 15 44 13 50
-2 6 -12 -7 -21 -28z"/>
<path d="M111 65 c-33 -38 -41 -56 -16 -35 8 7 24 10 35 7 17 -4 20 0 20 29 0
19 -2 34 -4 34 -2 0 -18 -16 -35 -35z m21 -7 c-7 -7 -12 -8 -12 -2 0 14 12 26
19 19 2 -3 -1 -11 -7 -17z"/>
<path d="M187 83 c-2 -10 -8 -27 -13 -38 -7 -19 -6 -19 12 -4 10 10 28 19 39
21 11 2 21 11 23 21 5 24 -54 24 -61 0z m48 -3 c-3 -5 -13 -10 -21 -10 -8 0
-12 5 -9 10 3 6 13 10 21 10 8 0 12 -4 9 -10z"/>
<path d="M261 69 c-15 -45 -14 -47 17 -41 l27 6 -25 6 -25 7 25 11 c14 6 19
11 13 11 -24 2 -13 20 15 24 26 4 26 4 -5 6 -26 1 -33 -4 -42 -30z"/>
<path d="M438 84 c-3 -11 -9 -28 -13 -39 -4 -14 -2 -13 8 4 l15 24 14 -27 14
-27 17 37 c19 40 16 60 -3 23 l-12 -22 -18 23 c-16 21 -17 21 -22 4z"/>
<path d="M522 75 c-17 -36 -14 -55 3 -25 l15 25 6 -22 c8 -30 22 -29 34 3 15
38 11 53 -5 19 -7 -16 -14 -25 -14 -19 -1 5 -7 18 -14 28 -12 17 -14 16 -25
-9z"/>
<path d="M607 68 c-13 -33 -13 -33 16 -36 34 -4 43 3 52 41 7 25 5 27 -24 27
-26 0 -33 -6 -44 -32z m51 0 c-2 -15 -11 -24 -25 -26 -26 -4 -28 1 -13 29 15
27 42 25 38 -3z"/>
<path d="M700 66 c0 -46 11 -45 46 2 l27 37 -26 -24 c-22 -20 -27 -21 -27 -8
0 9 -4 19 -10 22 -6 4 -10 -8 -10 -29z"/>
<path d="M797 93 c-11 -10 -8 -25 3 -18 6 3 10 1 10 -5 0 -7 -6 -10 -14 -7 -8
3 -21 -2 -30 -12 -18 -20 -22 -41 -4 -23 16 16 45 15 51 0 3 -7 6 6 6 30 1 39
-7 51 -22 35z"/>
<path d="M858 88 c8 -8 8 -17 1 -30 -6 -11 -8 -22 -5 -25 3 -4 11 8 17 25 6
17 18 33 27 35 9 3 1 5 -17 6 -27 1 -32 -2 -23 -11z"/>
<path d="M920 75 c-6 -15 -13 -32 -16 -36 -3 -5 -1 -9 3 -9 10 0 35 61 28 68
-2 3 -9 -8 -15 -23z"/>
<path d="M951 69 c-13 -39 -9 -47 25 -43 30 3 44 19 44 52 0 18 -6 22 -29 22
-24 0 -31 -6 -40 -31z m55 5 c-3 -9 -6 -20 -6 -25 0 -5 -11 -9 -25 -9 -23 0
-24 2 -13 25 12 28 55 37 44 9z"/>
<path d="M1042 70 c-7 -18 -10 -35 -8 -37 2 -3 7 6 11 18 l7 22 19 -24 18 -24
11 29 c6 16 13 34 16 40 3 6 -3 0 -13 -12 l-19 -24 -16 23 -15 23 -11 -34z"/>
<path d="M1142 88 c-18 -18 -15 -28 8 -28 11 0 20 -5 20 -11 0 -7 -10 -9 -25
-7 -14 3 -25 1 -25 -3 0 -5 14 -9 30 -9 23 0 30 4 30 20 0 14 -7 20 -21 20
-12 0 -17 4 -13 11 3 6 17 8 30 5 14 -4 24 -2 24 4 0 14 -43 13 -58 -2z"/>
<path d="M297 3 c161 -2 425 -2 585 0 161 1 30 2 -292 2 -322 0 -453 -1 -293
-2z"/>
</g>
</svg>
